<svg width="75" height="75" viewBox="0 0 113 118" fill="none" xmlns="http://www.w3.org/2000/svg">
<path d="M37.7958 95.0134C37.7958 95.5014 37.2718 95.8918 36.6111 95.8918C35.8593 95.965 35.3353 95.5746 35.3353 95.0134C35.3353 94.5254 35.8593 94.135 36.52 94.135C37.2034 94.0618 37.7958 94.4522 37.7958 95.0134ZM30.7105 93.9154C30.551 94.4034 31.0067 94.9646 31.6901 95.111C32.2825 95.355 32.9659 95.111 33.1026 94.623C33.2393 94.135 32.8065 93.5738 32.123 93.3542C31.5306 93.1834 30.87 93.4274 30.7105 93.9154ZM40.7802 93.5006C40.1196 93.6714 39.6639 94.135 39.7323 94.6962C39.8006 95.1842 40.3929 95.5014 41.0764 95.3306C41.7371 95.1598 42.1927 94.6962 42.1244 94.2082C42.056 93.7446 41.4409 93.4274 40.7802 93.5006ZM55.771 0C24.172 0 0 25.6932 0 59.5359C0 86.5954 15.902 109.751 38.6159 117.901C41.5321 118.462 42.5573 116.534 42.5573 114.948C42.5573 113.435 42.4889 105.091 42.4889 99.9666C42.4889 99.9666 26.5413 103.627 23.1923 92.6954C23.1923 92.6954 20.5952 85.595 16.8589 83.765C16.8589 83.765 11.6417 79.9342 17.2234 80.0075C17.2234 80.0075 22.8962 80.4955 26.0173 86.3026C31.0067 95.721 39.3677 93.0126 42.6256 91.4022C43.1496 87.4982 44.6304 84.7898 46.2708 83.1794C33.5355 81.6666 20.6863 79.6903 20.6863 56.2175C20.6863 49.5075 22.4177 46.1403 26.0629 41.8459C25.4706 40.2599 23.5341 33.7207 26.6552 25.2784C31.4167 23.6924 42.375 31.8663 42.375 31.8663C46.9315 30.4999 51.8296 29.7923 56.6823 29.7923C61.5349 29.7923 66.4331 30.4999 70.9895 31.8663C70.9895 31.8663 81.9478 23.668 86.7093 25.2784C89.8304 33.7451 87.894 40.2599 87.3016 41.8459C90.9468 46.1647 93.1794 49.5319 93.1794 56.2175C93.1794 79.7635 79.7607 81.6423 67.0254 83.1794C69.1214 85.107 70.8984 88.767 70.8984 94.501C70.8984 102.724 70.83 112.899 70.83 114.899C70.83 116.485 71.878 118.413 74.7714 117.852C97.5536 109.751 113 86.5954 113 59.5359C113 25.6932 87.37 0 55.771 0ZM22.1444 84.1554C21.8482 84.3994 21.9165 84.9606 22.3038 85.4242C22.6683 85.8146 23.1923 85.9854 23.4885 85.6682C23.7847 85.4242 23.7163 84.863 23.329 84.3994C22.9645 84.009 22.4405 83.8382 22.1444 84.1554ZM19.6839 82.179C19.5244 82.4962 19.7522 82.8867 20.2079 83.1307C20.5724 83.3746 21.028 83.3014 21.1875 82.9598C21.347 82.6426 21.1192 82.2523 20.6635 82.0083C20.2079 81.8619 19.8433 81.9351 19.6839 82.179ZM27.0653 90.8654C26.7008 91.1826 26.8375 91.9146 27.3615 92.3782C27.8855 92.9394 28.5462 93.0126 28.8423 92.6222C29.1385 92.305 29.0018 91.573 28.5462 91.1094C28.045 90.5482 27.3615 90.475 27.0653 90.8654ZM24.4681 87.2786C24.1036 87.5226 24.1036 88.157 24.4681 88.7182C24.8327 89.2794 25.4478 89.5234 25.744 89.2794C26.1085 88.9622 26.1085 88.3278 25.744 87.7666C25.425 87.2054 24.8327 86.9614 24.4681 87.2786Z" fill="#C6D8D3"/>
</svg>
