<svg width="75" height="75" viewBox="0 0 122 125" fill="none" xmlns="http://www.w3.org/2000/svg">
<path d="M61 0C27.3102 0 0 27.9818 0 62.5C0 97.0182 27.3102 125 61 125C94.6898 125 122 97.0182 122 62.5C122 27.9818 94.6898 0 61 0ZM46.0677 88.4049H33.7152V47.6758H46.0677V88.4049ZM39.8152 42.6758C35.9137 42.6758 33.3911 39.8437 33.3911 36.3411C33.3911 32.7669 35.99 30.0195 39.9741 30.0195C43.9581 30.0195 46.3981 32.7669 46.4744 36.3411C46.4744 39.8437 43.9581 42.6758 39.8152 42.6758ZM91.1823 88.4049H78.8298V65.8333C78.8298 60.5794 77.0379 57.0117 72.5709 57.0117C69.1588 57.0117 67.1318 59.4271 66.2358 61.7513C65.9054 62.5781 65.8228 63.75 65.8228 64.9154V88.3984H53.464V60.6641C53.464 55.5794 53.3051 51.3281 53.1399 47.6693H63.8721L64.4376 53.3268H64.6854C66.3121 50.6706 70.2962 46.7513 76.9617 46.7513C85.0886 46.7513 91.1823 52.3307 91.1823 64.3229V88.4049Z" fill="#C6D8D3"/>
</svg>
