 <svg  version="1.0" xmlns="http://www.w3.org/2000/svg"  width="250.000000pt" height="200.000000pt" viewBox="0 0 250.000000 250.000000"  preserveAspectRatio="xMidYMid meet">  <g transform="translate(0.000000,250.000000) scale(0.100000,-0.100000)" fill="#61524a" stroke="none"> <path d="M692 2233 c-84 -41 -83 -176 2 -217 31 -14 112 -16 806 -16 694 0 775 2 806 16 86 41 86 177 0 218 -31 14 -112 16 -808 16 -693 0 -776 -2 -806 -17z"/> <path d="M719 1618 c-85 -17 -120 -133 -61 -198 15 -18 42 -34 62 -38 28 -6 1353 -9 1539 -3 35 1 49 7 77 35 30 30 34 40 34 86 0 46 -4 56 -34 86 -19 19 -45 35 -57 35 -98 5 -1534 3 -1560 -3z"/> <path d="M692 983 c-84 -41 -83 -176 2 -217 31 -14 112 -16 806 -16 694 0 775 2 806 16 86 41 86 177 0 218 -31 14 -112 16 -808 16 -693 0 -776 -2 -806 -17z"/> </g> </svg> 